<svg xmlns="http://www.w3.org/2000/svg" viewBox="0 0 476.16 102.17"><defs><style>.cls-1{fill:#ffd05a;}</style></defs><title>Asset 6</title><g id="Layer_2" data-name="Layer 2"><g id="Layer_1-2" data-name="Layer 1"><path class="cls-1" d="M120.79,33.16,102.33,81.3h8.34l4.59-12.89h18L138.1,81.3h8.3L127.86,33.16Zm3.43,10.76,6.44,17.49H117.83Z"/><path class="cls-1" d="M167,45.53a12.7,12.7,0,0,0-9.82,4.18V46.3h-7.43v35h7.43V61.49a9.86,9.86,0,0,1,2.31-6.77,7.18,7.18,0,0,1,5.71-2.59c2.81,0,6.54,1,6.54,9.36V81.3h7.43V60.15c0-4.62-1-8.24-3.1-10.74S170.95,45.53,167,45.53Z"/><path class="cls-1" d="M196.07,36.18l-7.43,2.4V46.3H183V53h5.64V71.3c0,8.84,5.28,10.7,9.71,10.7a11.24,11.24,0,0,0,5.43-1.16l.56-.31V73.23l-1.74,1.31a4.46,4.46,0,0,1-2.78.87,3.46,3.46,0,0,1-2.87-1c-.4-.51-.89-1.62-.89-4V53h8.27V46.3h-8.27Z"/><path class="cls-1" d="M226.44,45.53a12.73,12.73,0,0,0-9.82,4.2V30.53H209.2V81.3h7.43V61.62A9.93,9.93,0,0,1,219,54.73a7.23,7.23,0,0,1,5.66-2.6c2.81,0,6.55,1,6.55,9.17v20h7.43V60C238.62,48,232,45.53,226.44,45.53Z"/><path class="cls-1" d="M260.33,45.53a15,15,0,0,0-11.59,5.18c-3.07,3.41-4.62,7.85-4.62,13.22,0,5.66,1.43,10.13,4.25,13.3s6.8,4.84,11.74,4.84,9-1.13,12.08-3.35l.45-.32V70.67l-1.76,1.38a15.16,15.16,0,0,1-9.53,3.42,9.07,9.07,0,0,1-7-2.64,10.66,10.66,0,0,1-2.59-6.64h23.12V62.36c0-5.18-1.27-9.31-3.78-12.28S264.94,45.53,260.33,45.53Zm-.09,6.6a6.39,6.39,0,0,1,5.18,2.15,9,9,0,0,1,1.89,5.3H252a10.61,10.61,0,0,1,2.68-5.12A7.39,7.39,0,0,1,260.23,52.13Z"/><path class="cls-1" d="M317.55,45.53A12.46,12.46,0,0,0,306.84,51a10.45,10.45,0,0,0-3-3.42,10.58,10.58,0,0,0-6.52-2.09,12,12,0,0,0-9.24,3.9V46.3h-7.43v35h7.43V61.49a11,11,0,0,1,2-6.89A5.83,5.83,0,0,1,295,52.13c2.74,0,6.38.89,6.38,8.6V81.3h7.43V61.49a10.63,10.63,0,0,1,2.13-6.71,5.93,5.93,0,0,1,4.86-2.65c2.29,0,3.85.64,4.77,2S322,58,322,61.36V81.3h7.43V60C329.48,48,323,45.53,317.55,45.53Z"/><path class="cls-1" d="M366.16,62.19h10.07V73.34A18.63,18.63,0,0,1,368,75.06c-5,0-8.77-1.51-11.64-4.63s-4.3-7.46-4.3-13c0-5.33,1.56-9.72,4.65-13a15.32,15.32,0,0,1,11.86-5,23.23,23.23,0,0,1,12.63,3.36l1.67,1.05V35.22l-.62-.3a30.32,30.32,0,0,0-13.07-2.54,24.15,24.15,0,0,0-17.88,7.17c-4.68,4.76-7.06,10.91-7.06,18.28,0,7.22,2.15,13.13,6.38,17.55s9.86,6.68,16.7,6.68a32,32,0,0,0,15.92-4l.55-.31V55.15H366.16Z"/><path class="cls-1" d="M407.17,45.53c-5.41,0-9.78,1.67-13,5s-4.83,7.89-4.83,13.68c0,5.32,1.56,9.68,4.64,12.94s7.26,4.94,12.41,4.94,9.55-1.7,12.7-5.07,4.74-7.83,4.74-13.33-1.48-10.06-4.41-13.27S412.35,45.53,407.17,45.53Zm-.39,29.94a9,9,0,0,1-7.17-3c-1.8-2-2.71-4.88-2.71-8.48s.91-6.71,2.69-8.8a8.89,8.89,0,0,1,7.19-3.06c3.09,0,5.38,1,7,2.93s2.49,5,2.49,8.8-.84,6.71-2.49,8.7S409.87,75.47,406.78,75.47Z"/><rect class="cls-1" x="430.07" y="30.53" width="7.43" height="50.78"/><path class="cls-1" d="M468.72,30.53V48.88a12,12,0,0,0-8.88-3.35,14.65,14.65,0,0,0-11.77,5.29c-2.89,3.46-4.36,8.08-4.36,13.75,0,5.3,1.33,9.57,4,12.7a14.52,14.52,0,0,0,21.05.54V81.3h7.43V30.53Zm0,30v4.84a10.69,10.69,0,0,1-2.47,7.31,7.88,7.88,0,0,1-6.32,2.8,7.54,7.54,0,0,1-6.25-2.88c-1.6-2-2.41-4.77-2.41-8.28,0-3.88.85-6.93,2.53-9.08a8,8,0,0,1,6.71-3.11,7.71,7.71,0,0,1,5.88,2.42A8.26,8.26,0,0,1,468.72,60.53Z"/><polygon class="cls-1" points="51.01 22.45 45.49 22.45 42.83 27.45 53.65 27.45 51.01 22.45"/><path class="cls-1" d="M56.51,47.12a10.57,10.57,0,0,1,7.22,2.57V46.51L56.78,33.37h-7.9l7.06,13.78C56.13,47.14,56.32,47.12,56.51,47.12Z"/><path class="cls-1" d="M71.15,60.55c-.49,2.7-2.28,4.62-5.4,5.75l3.18,6.22h8.53Z"/><polygon class="cls-1" points="32.6 46.67 25.2 60.58 18.86 72.51 27.28 72.51 30.54 66.26 33.53 60.51 47.67 33.37 39.68 33.37 32.6 46.67"/><path class="cls-1" d="M63.34,45.66V59a1.83,1.83,0,0,1-.92,1.58q-1.56,1-5.79,1H38.93A18,18,0,0,1,35,61.23a11.87,11.87,0,0,0-2.2,3.92c1.6.1,3.2.35,4.81.48A1.55,1.55,0,0,1,39,67.51H56.62a26.11,26.11,0,0,0,8.74-1.21q4.68-1.69,5.4-5.75A8.52,8.52,0,0,0,70.9,59V45.66Z"/><path class="cls-1" d="M32.6,35.88q0-2.73,6.72-2.73h8.35L48.28,32l.61,1.18H70.67V27.23H39.32Q25,27.23,25,35.88V58.64a9,9,0,0,0,.17,1.73l7.4-13.91Z"/><path class="cls-1" d="M98.26,51s0,.05,0,.08A47.18,47.18,0,1,1,51.08,3.91h.24c.14-1.3.27-2.6.4-3.9h-.65a51.08,51.08,0,1,0,51.08,51.09V50.9C100.86,50.95,99.56,51,98.26,51Z"/><path class="cls-1" d="M51.08,8.77A42.36,42.36,0,0,0,8.77,51.09h2.6A39.71,39.71,0,1,1,51.08,90.79v2.6a42.31,42.31,0,0,0,0-84.63Z"/><rect class="cls-1" x="51.44" y="45.66" width="7.89" height="5.43"/><path class="cls-1" d="M32.6,36.1q0-2.73,6.72-2.73h8.35l.61-1.18.61,1.18H70.67V27.45H39.32Q25,27.45,25,36.1V58.86a8.94,8.94,0,0,0,.17,1.73l7.4-13.91Z"/><path class="cls-1" d="M63.73,45.66H51.84v5.43H63.73V59a1.83,1.83,0,0,1-.92,1.58q-1.57,1-5.79,1H39.32q-4.22,0-5.79-1.08l-3,5.75a25.73,25.73,0,0,0,8.78,1.25H57a26.14,26.14,0,0,0,8.73-1.21c3.12-1.13,4.91-3,5.4-5.75A8.71,8.71,0,0,0,71.3,59V45.66Z"/></g></g></svg>